# Blender v2.79 (sub 0) OBJ File: ''
# www.blender.org
mtllib arrow2.mtl
o Cone_Cone.002
v 0.005571 1.858648 -0.200929
v 0.044590 1.858648 -0.197086
v 0.082108 1.858648 -0.185704
v 0.116685 1.858648 -0.167222
v 0.146993 1.858648 -0.142350
v 0.171865 1.858648 -0.112043
v 0.190347 1.858648 -0.077465
v 0.201728 1.858648 -0.039947
v 0.205571 1.858648 -0.000929
v 0.201729 1.858648 0.038089
v 0.190347 1.858648 0.075608
v 0.171865 1.858648 0.110185
v 0.146993 1.858648 0.140493
v 0.116685 1.858648 0.165365
v 0.082108 1.858648 0.183847
v 0.044589 1.858648 0.195229
v 0.005571 1.858648 0.199071
v -0.033447 1.858648 0.195228
v -0.070965 1.858648 0.183847
v -0.105543 1.858648 0.165365
v -0.135850 1.858648 0.140493
v -0.160723 1.858648 0.110185
v -0.179205 1.858648 0.075608
v 0.005571 2.328648 -0.000929
v -0.190586 1.858648 0.038089
v -0.194429 1.858648 -0.000929
v -0.190586 1.858648 -0.039947
v -0.179204 1.858648 -0.077465
v -0.160722 1.858648 -0.112043
v -0.135850 1.858648 -0.142350
v -0.105542 1.858648 -0.167223
v -0.070965 1.858648 -0.185705
v -0.033446 1.858648 -0.197086
vn 0.0903 0.3900 -0.9164
vn 0.2673 0.3900 -0.8812
vn 0.4341 0.3900 -0.8121
vn 0.5842 0.3900 -0.7118
vn 0.7118 0.3900 -0.5842
vn 0.8121 0.3900 -0.4341
vn 0.8812 0.3900 -0.2673
vn 0.9164 0.3900 -0.0903
vn 0.9164 0.3900 0.0903
vn 0.8812 0.3900 0.2673
vn 0.8121 0.3900 0.4341
vn 0.7118 0.3900 0.5842
vn 0.5842 0.3900 0.7118
vn 0.4341 0.3900 0.8121
vn 0.2673 0.3900 0.8812
vn 0.0903 0.3900 0.9164
vn -0.0903 0.3900 0.9164
vn -0.2673 0.3900 0.8812
vn -0.4341 0.3900 0.8121
vn -0.5842 0.3900 0.7118
vn -0.7118 0.3900 0.5842
vn -0.8121 0.3900 0.4341
vn -0.8812 0.3900 0.2673
vn -0.9164 0.3900 0.0903
vn -0.9164 0.3900 -0.0903
vn -0.8812 0.3900 -0.2673
vn -0.8121 0.3900 -0.4341
vn -0.7118 0.3900 -0.5842
vn -0.5842 0.3900 -0.7118
vn -0.4341 0.3900 -0.8121
vn -0.2673 0.3900 -0.8812
vn -0.0903 0.3900 -0.9164
vn 0.0000 -1.0000 -0.0000
usemtl None
s off
f 1//1 24//1 2//1
f 2//2 24//2 3//2
f 3//3 24//3 4//3
f 4//4 24//4 5//4
f 5//5 24//5 6//5
f 6//6 24//6 7//6
f 7//7 24//7 8//7
f 8//8 24//8 9//8
f 9//9 24//9 10//9
f 10//10 24//10 11//10
f 11//11 24//11 12//11
f 12//12 24//12 13//12
f 13//13 24//13 14//13
f 14//14 24//14 15//14
f 15//15 24//15 16//15
f 16//16 24//16 17//16
f 17//17 24//17 18//17
f 18//18 24//18 19//18
f 19//19 24//19 20//19
f 20//20 24//20 21//20
f 21//21 24//21 22//21
f 22//22 24//22 23//22
f 23//23 24//23 25//23
f 25//24 24//24 26//24
f 26//25 24//25 27//25
f 27//26 24//26 28//26
f 28//27 24//27 29//27
f 29//28 24//28 30//28
f 30//29 24//29 31//29
f 31//30 24//30 32//30
f 32//31 24//31 33//31
f 33//32 24//32 1//32
f 1//33 2//33 3//33 4//33 5//33 6//33 7//33 8//33 9//33 10//33 11//33 12//33 13//33 14//33 15//33 16//33 17//33 18//33 19//33 20//33 21//33 22//33 23//33 25//33 26//33 27//33 28//33 29//33 30//33 31//33 32//33 33//33
o Cylinder_Cylinder.002
v 0.003424 0.020967 -0.101362
v 0.003424 2.020967 -0.101362
v 0.022933 0.020967 -0.099440
v 0.022933 2.020967 -0.099440
v 0.041692 0.020967 -0.093750
v 0.041692 2.020967 -0.093750
v 0.058981 0.020967 -0.084509
v 0.058981 2.020967 -0.084509
v 0.074134 0.020967 -0.072072
v 0.074134 2.020967 -0.072072
v 0.086571 0.020967 -0.056919
v 0.086571 2.020967 -0.056919
v 0.095812 0.020967 -0.039630
v 0.095812 2.020967 -0.039630
v 0.101502 0.020967 -0.020871
v 0.101502 2.020967 -0.020871
v 0.103424 0.020967 -0.001362
v 0.103424 2.020967 -0.001362
v 0.101502 0.020967 0.018147
v 0.101502 2.020967 0.018147
v 0.095812 0.020967 0.036907
v 0.095812 2.020967 0.036907
v 0.086571 0.020967 0.054195
v 0.086571 2.020967 0.054195
v 0.074134 0.020967 0.069349
v 0.074134 2.020967 0.069349
v 0.058981 0.020967 0.081785
v 0.058981 2.020967 0.081785
v 0.041692 0.020967 0.091026
v 0.041692 2.020967 0.091026
v 0.022933 0.020967 0.096717
v 0.022933 2.020967 0.096717
v 0.003424 0.020967 0.098638
v 0.003424 2.020967 0.098638
v -0.016085 0.020967 0.096717
v -0.016085 2.020967 0.096717
v -0.034845 0.020967 0.091026
v -0.034845 2.020967 0.091026
v -0.052133 0.020967 0.081785
v -0.052133 2.020967 0.081785
v -0.067287 0.020967 0.069349
v -0.067287 2.020967 0.069349
v -0.079723 0.020967 0.054195
v -0.079723 2.020967 0.054195
v -0.088964 0.020967 0.036907
v -0.088964 2.020967 0.036907
v -0.094655 0.020967 0.018147
v -0.094655 2.020967 0.018147
v -0.096576 0.020967 -0.001362
v -0.096576 2.020967 -0.001362
v -0.094655 0.020967 -0.020871
v -0.094655 2.020967 -0.020871
v -0.088964 0.020967 -0.039630
v -0.088964 2.020967 -0.039630
v -0.079723 0.020967 -0.056919
v -0.079723 2.020967 -0.056919
v -0.067287 0.020967 -0.072072
v -0.067287 2.020967 -0.072072
v -0.052133 0.020967 -0.084509
v -0.052133 2.020967 -0.084509
v -0.034844 0.020967 -0.093750
v -0.034844 2.020967 -0.093750
v -0.016085 0.020967 -0.099440
v -0.016085 2.020967 -0.099440
vn 0.0980 0.0000 -0.9952
vn 0.2903 0.0000 -0.9569
vn 0.4714 0.0000 -0.8819
vn 0.6344 0.0000 -0.7730
vn 0.7730 0.0000 -0.6344
vn 0.8819 0.0000 -0.4714
vn 0.9569 0.0000 -0.2903
vn 0.9952 0.0000 -0.0980
vn 0.9952 0.0000 0.0980
vn 0.9569 0.0000 0.2903
vn 0.8819 0.0000 0.4714
vn 0.7730 0.0000 0.6344
vn 0.6344 0.0000 0.7730
vn 0.4714 0.0000 0.8819
vn 0.2903 0.0000 0.9569
vn 0.0980 0.0000 0.9952
vn -0.0980 0.0000 0.9952
vn -0.2903 0.0000 0.9569
vn -0.4714 0.0000 0.8819
vn -0.6344 0.0000 0.7730
vn -0.7730 0.0000 0.6344
vn -0.8819 0.0000 0.4714
vn -0.9569 0.0000 0.2903
vn -0.9952 0.0000 0.0980
vn -0.9952 0.0000 -0.0980
vn -0.9569 0.0000 -0.2903
vn -0.8819 0.0000 -0.4714
vn -0.7730 0.0000 -0.6344
vn -0.6344 0.0000 -0.7730
vn -0.4714 0.0000 -0.8819
vn 0.0000 1.0000 0.0000
vn -0.2903 0.0000 -0.9569
vn -0.0980 0.0000 -0.9952
vn 0.0000 -1.0000 -0.0000
usemtl None
s off
f 34//34 35//34 37//34 36//34
f 36//35 37//35 39//35 38//35
f 38//36 39//36 41//36 40//36
f 40//37 41//37 43//37 42//37
f 42//38 43//38 45//38 44//38
f 44//39 45//39 47//39 46//39
f 46//40 47//40 49//40 48//40
f 48//41 49//41 51//41 50//41
f 50//42 51//42 53//42 52//42
f 52//43 53//43 55//43 54//43
f 54//44 55//44 57//44 56//44
f 56//45 57//45 59//45 58//45
f 58//46 59//46 61//46 60//46
f 60//47 61//47 63//47 62//47
f 62//48 63//48 65//48 64//48
f 64//49 65//49 67//49 66//49
f 66//50 67//50 69//50 68//50
f 68//51 69//51 71//51 70//51
f 70//52 71//52 73//52 72//52
f 72//53 73//53 75//53 74//53
f 74//54 75//54 77//54 76//54
f 76//55 77//55 79//55 78//55
f 78//56 79//56 81//56 80//56
f 80//57 81//57 83//57 82//57
f 82//58 83//58 85//58 84//58
f 84//59 85//59 87//59 86//59
f 86//60 87//60 89//60 88//60
f 88//61 89//61 91//61 90//61
f 90//62 91//62 93//62 92//62
f 92//63 93//63 95//63 94//63
f 37//64 35//64 97//64 95//64 93//64 91//64 89//64 87//64 85//64 83//64 81//64 79//64 77//64 75//64 73//64 71//64 69//64 67//64 65//64 63//64 61//64 59//64 57//64 55//64 53//64 51//64 49//64 47//64 45//64 43//64 41//64 39//64
f 94//65 95//65 97//65 96//65
f 96//66 97//66 35//66 34//66
f 34//67 36//67 38//67 40//67 42//67 44//67 46//67 48//67 50//67 52//67 54//67 56//67 58//67 60//67 62//67 64//67 66//67 68//67 70//67 72//67 74//67 76//67 78//67 80//67 82//67 84//67 86//67 88//67 90//67 92//67 94//67 96//67
